#N canvas 923 28 959 884 10;
#N canvas 2199 261 473 564 spectrum 1;
#X obj 335 197 rfft~;
#X obj 130 188 tgl 15 0 empty empty empty 17 7 0 10 -262144 -1 -1 1
1;
#N canvas 51 367 1153 478 (subpatch) 0;
#X array spectrum2 128 float 3;
#A 0 0 0 0.875759 1.40663 0.850291 0.484387 0.189631 0.116494 0.223146
0.0419798 0.272223 0.11923 0.0687987 0.189466 0.0317516 0.0928879 0.127902
0.0430679 0.0207896 0.0609348 0.120118 0.125029 0.218539 0.149724 0.0432217
0.0320405 0.0923212 0.0397534 0.0338636 0.0385622 0.0772404 0.0185353
0.0423317 0.0210486 0.0128297 0.0700414 0.048201 0.0197701 0.0198699
0.00707527 0.043624 0.0164342 0.00930089 0.0209986 0.023866 0.00269194
0.0264982 0.021061 0.0297013 0.0095015 0.0193704 0.0263558 0.025737
0.0273254 0.0276709 0.0216787 0.0192936 0.00801912 0.0216472 0.00699892
0.0141304 0.0341972 0.0153457 0.0115743 0.0388592 0.0119541 0.00496384
0.0165359 0.00577112 0.0407587 0.0234047 0.0304215 0.026139 0.0113965
0.00205109 0.00964392 0.0209801 0.0318628 0.0144024 0.00926744 0.0200706
0.0323835 0.0236482 0.0349174 0.0302495 0.0333348 0.0123952 0.00663301
0.0167896 0.0267346 0.025593 0.0131759 0.00314722 0.0225147 0.0297113
0.0145359 0.0256348 0.00965359 0.00204077 0.0254873 0.0355547 0.015467
0.0199701 0.0100315 0.00978889 0.0173316 0.0193857 0.0215447 0.00712913
0.00214437 0.0102401 0.00755649 0.00952654 0.00768167 0.00952233 0.0146305
0.0154027 0.010085 0.00557905 0.00407048 0.00770617 0.0174139 0.018425
0.0160134 0.0227908 0.0146074 0.0275557 0.0183579;
#X coords 0 256 128 0 400 150 1;
#X restore 36 379 graph;
#X obj 335 224 *~;
#X obj 362 224 *~;
#X obj 332 280 biquad~ 0 0 0 0 1;
#X obj 130 210 metro 50;
#X obj 335 253 q8_sqrt~;
#X text 35 531 20Hz;
#X text 412 530 2KHz;
#X obj 62 158 loadbang;
#X msg 46 90 \; pd dsp 1;
#X obj 52 311 tabwrite~ spectrum2;
#X obj 327 25 inlet~;
#X obj 42 27 block~ 4096;
#X obj 340 313 print;
#X connect 0 0 3 0;
#X connect 0 0 3 1;
#X connect 0 1 4 0;
#X connect 0 1 4 1;
#X connect 1 0 6 0;
#X connect 3 0 7 0;
#X connect 4 0 7 0;
#X connect 5 0 12 0;
#X connect 6 0 12 0;
#X connect 7 0 5 0;
#X connect 10 0 1 0;
#X connect 10 0 11 0;
#X connect 13 0 0 0;
#X coords 0 -1 1 1 420 200 1 25 350;
#X restore 31 336 pd spectrum;
#X obj 36 50 adc~;
#X obj 52 690 f;
#X obj 187 679 samplerate~;
#X obj 52 720 expr $f1 * ($f2 / 4096);
#X obj 33 642 tabread spectrum2;
#X obj 34 598 until;
#X obj 32 665 t f b b;
#X obj 80 690 + 1;
#X obj 53 815 pack f f;
#X obj 98 788 f;
#X obj 53 744 t f b;
#X obj 56 864 print;
#X obj 34 621 f;
#X obj 62 621 + 1;
#X obj 34 566 t f b;
#X msg 118 580 0;
#X text 63 544 <- click on this to have freq and amp info printed;
#X obj 119 7 bng 15 250 50 0 empty empty empty 17 7 0 10 -262144 -1
-1;
#X obj 119 30 openpanel;
#X msg 118 52 open \$1;
#X obj 118 78 readsf~ 2;
#X msg 215 60 start;
#X msg 285 58 stop;
#X obj 342 207 lop~;
#X obj 497 215 bp~, f 19;
#X obj 660 218 hip~;
#X floatatom 725 190 5 0 0 0 - - -;
#X obj 681 15 vsl 15 128 10 150 0 0 empty empty empty 0 -9 0 10 -262144
-1 -1 0 1;
#X obj 681 177 pow;
#X floatatom 709 126 5 0 0 0 - - -;
#X floatatom 589 182 5 0 0 0 - - -;
#X obj 557 5 vsl 15 128 10 150 0 0 empty empty empty 0 -9 0 10 -262144
-1 -1 0 1;
#X obj 557 167 pow;
#X floatatom 585 116 5 0 0 0 - - -;
#X floatatom 627 182 5 0 0 0 - - -;
#X floatatom 346 183 5 0 0 0 - - -;
#X obj 343 292 dac~;
#X obj 346 264 *~;
#X obj 415 251 tgl 15 0 empty empty empty 17 7 0 10 -262144 -1 -1 0
1;
#X obj 346 238 *~ 0.5;
#X obj 488 297 dac~;
#X obj 491 269 *~;
#X obj 560 256 tgl 15 0 empty empty empty 17 7 0 10 -262144 -1 -1 0
1;
#X obj 491 243 *~ 0.5;
#X obj 633 304 dac~;
#X obj 636 276 *~;
#X obj 705 263 tgl 15 0 empty empty empty 17 7 0 10 -262144 -1 -1 0
1;
#X obj 636 250 *~ 0.5;
#X obj 91 255 dac~;
#X obj 94 227 *~;
#X obj 163 214 tgl 15 0 empty empty empty 17 7 0 10 -262144 -1 -1 1
1;
#X obj 94 201 *~ 0.5;
#X msg 35 543 10;
#X obj 402 734 list prepend;
#X obj 618 748 t l;
#X obj 366 807 print stored;
#X obj 673 787 unpack f f f f f f f f f f;
#X obj 612 822 s value1;
#X obj 858 318 r value1;
#X floatatom 858 344 5 0 0 0 - - -;
#X obj 472 580 bng 15 250 50 0 empty empty empty 17 7 0 10 -262144
-1 -1;
#X floatatom 856 391 5 0 0 0 - - -;
#X floatatom 855 443 5 0 0 0 - - -;
#X floatatom 853 492 5 0 0 0 - - -;
#X floatatom 853 545 5 0 0 0 - - -;
#X floatatom 854 593 5 0 0 0 - - -;
#X floatatom 855 646 5 0 0 0 - - -;
#X floatatom 854 688 5 0 0 0 - - -;
#X floatatom 854 730 5 0 0 0 - - -;
#X floatatom 853 780 5 0 0 0 - - -;
#X obj 856 365 r value2;
#X obj 855 417 r value3;
#X obj 853 466 r value4;
#X obj 853 519 r value5;
#X obj 854 567 r value6;
#X obj 855 620 r value7;
#X obj 854 668 r value8;
#X obj 854 708 r value9;
#X obj 853 754 r value10;
#X obj 864 852 s value10;
#X obj 800 852 s value9;
#X obj 739 851 s value8;
#X obj 675 847 s value7;
#X obj 606 848 s value6;
#X obj 855 822 s value5;
#X obj 792 823 s value4;
#X obj 729 822 s value3;
#X obj 667 824 s value2;
#X obj 493 424 metro 100;
#X obj 498 391 tgl 15 0 empty empty empty 17 7 0 10 -262144 -1 -1 0
1;
#X obj 265 778 list length;
#X obj 265 802 print length;
#X obj 521 771 split 3;
#X obj 521 792 unpack f f f;
#X floatatom 477 834 5 0 0 0 - - -;
#X floatatom 521 831 5 0 0 0 - - -;
#X floatatom 559 833 5 0 0 0 - - -;
#X text 236 844;
#X connect 1 0 0 0;
#X connect 2 0 4 0;
#X connect 2 0 8 0;
#X connect 3 0 4 1;
#X connect 4 0 11 0;
#X connect 5 0 7 0;
#X connect 6 0 13 0;
#X connect 7 0 10 1;
#X connect 7 1 2 0;
#X connect 7 2 3 0;
#X connect 8 0 2 1;
#X connect 10 0 9 1;
#X connect 10 0 54 0;
#X connect 11 0 9 0;
#X connect 11 1 10 0;
#X connect 13 0 14 0;
#X connect 13 0 5 0;
#X connect 14 0 13 1;
#X connect 15 0 6 0;
#X connect 15 1 16 0;
#X connect 15 1 61 0;
#X connect 16 0 13 1;
#X connect 16 0 2 1;
#X connect 18 0 19 0;
#X connect 19 0 20 0;
#X connect 20 0 21 0;
#X connect 21 0 24 0;
#X connect 21 0 25 0;
#X connect 21 0 26 0;
#X connect 21 0 52 0;
#X connect 22 0 21 0;
#X connect 23 0 21 0;
#X connect 24 0 40 0;
#X connect 25 0 44 0;
#X connect 26 0 48 0;
#X connect 28 0 29 0;
#X connect 29 0 27 0;
#X connect 29 0 26 1;
#X connect 30 0 29 1;
#X connect 32 0 33 0;
#X connect 33 0 31 0;
#X connect 33 0 25 1;
#X connect 34 0 33 1;
#X connect 35 0 25 2;
#X connect 36 0 24 1;
#X connect 38 0 37 0;
#X connect 38 0 37 1;
#X connect 38 0 0 0;
#X connect 39 0 38 1;
#X connect 40 0 38 0;
#X connect 42 0 41 0;
#X connect 42 0 41 1;
#X connect 42 0 0 0;
#X connect 43 0 42 1;
#X connect 44 0 42 0;
#X connect 46 0 45 0;
#X connect 46 0 45 1;
#X connect 46 0 0 0;
#X connect 47 0 46 1;
#X connect 48 0 46 0;
#X connect 50 0 49 0;
#X connect 50 0 49 1;
#X connect 50 0 0 0;
#X connect 51 0 50 1;
#X connect 52 0 50 0;
#X connect 53 0 15 0;
#X connect 54 0 55 0;
#X connect 54 0 56 0;
#X connect 55 0 54 1;
#X connect 57 0 58 0;
#X connect 57 1 88 0;
#X connect 57 2 87 0;
#X connect 57 3 86 0;
#X connect 57 4 85 0;
#X connect 57 5 84 0;
#X connect 57 6 83 0;
#X connect 57 7 82 0;
#X connect 57 8 81 0;
#X connect 57 9 80 0;
#X connect 59 0 60 0;
#X connect 61 0 54 1;
#X connect 71 0 62 0;
#X connect 72 0 63 0;
#X connect 73 0 64 0;
#X connect 74 0 65 0;
#X connect 75 0 66 0;
#X connect 76 0 67 0;
#X connect 77 0 68 0;
#X connect 78 0 69 0;
#X connect 79 0 70 0;
#X connect 89 0 53 0;
#X connect 90 0 89 0;
#X connect 91 0 92 0;
#X connect 93 0 94 0;
#X connect 93 1 57 0;
#X connect 94 0 95 0;
#X connect 94 1 96 0;
#X connect 94 2 97 0;
